<mxfile host="drawio-plugin" modified="2022-11-17T22:21:59.336Z" agent="5.0 (Windows NT 6.2; Win64; x64) AppleWebKit/537.36 (KHTML, like Gecko) Chrome/98.0.4758.102 Safari/537.36" etag="ledl99IVwEjxnl53s176" version="20.5.3" type="embed"><diagram id="C5RBs43oDa-KdzZeNtuy" name="Page-1"><mxGraphModel dx="2019" dy="1103" grid="1" gridSize="10" guides="1" tooltips="1" connect="1" arrows="1" fold="1" page="1" pageScale="1" pageWidth="827" pageHeight="1169" math="0" shadow="0"><root><mxCell id="WIyWlLk6GJQsqaUBKTNV-0"/><mxCell id="WIyWlLk6GJQsqaUBKTNV-1" parent="WIyWlLk6GJQsqaUBKTNV-0"/><mxCell id="lITUYnTNvuvev6aslpu9-0" value="Main" style="swimlane;fontStyle=1;align=center;verticalAlign=top;childLayout=stackLayout;horizontal=1;startSize=26;horizontalStack=0;resizeParent=1;resizeParentMax=0;resizeLast=0;collapsible=1;marginBottom=0;" parent="WIyWlLk6GJQsqaUBKTNV-1" vertex="1"><mxGeometry x="40" y="9" width="160" height="112" as="geometry"/></mxCell><mxCell id="lITUYnTNvuvev6aslpu9-2" value="" style="line;strokeWidth=1;fillColor=none;align=left;verticalAlign=middle;spacingTop=-1;spacingLeft=3;spacingRight=3;rotatable=0;labelPosition=right;points=[];portConstraint=eastwest;strokeColor=inherit;" parent="lITUYnTNvuvev6aslpu9-0" vertex="1"><mxGeometry y="26" width="160" height="8" as="geometry"/></mxCell><mxCell id="lITUYnTNvuvev6aslpu9-4" value="+displayGraphics(): void" style="text;strokeColor=none;fillColor=none;align=left;verticalAlign=top;spacingLeft=4;spacingRight=4;overflow=hidden;rotatable=0;points=[[0,0.5],[1,0.5]];portConstraint=eastwest;" parent="lITUYnTNvuvev6aslpu9-0" vertex="1"><mxGeometry y="34" width="160" height="26" as="geometry"/></mxCell><mxCell id="lITUYnTNvuvev6aslpu9-5" value="+playWordle(): void" style="text;strokeColor=none;fillColor=none;align=left;verticalAlign=top;spacingLeft=4;spacingRight=4;overflow=hidden;rotatable=0;points=[[0,0.5],[1,0.5]];portConstraint=eastwest;" parent="lITUYnTNvuvev6aslpu9-0" vertex="1"><mxGeometry y="60" width="160" height="26" as="geometry"/></mxCell><mxCell id="lITUYnTNvuvev6aslpu9-3" value="+main(args:String[]): void" style="text;strokeColor=none;fillColor=none;align=left;verticalAlign=top;spacingLeft=4;spacingRight=4;overflow=hidden;rotatable=0;points=[[0,0.5],[1,0.5]];portConstraint=eastwest;fontStyle=4" parent="lITUYnTNvuvev6aslpu9-0" vertex="1"><mxGeometry y="86" width="160" height="26" as="geometry"/></mxCell><mxCell id="1" value="WordleGraphics" style="swimlane;fontStyle=1;align=center;verticalAlign=top;childLayout=stackLayout;horizontal=1;startSize=26;horizontalStack=0;resizeParent=1;resizeParentMax=0;resizeLast=0;collapsible=1;marginBottom=0;" parent="WIyWlLk6GJQsqaUBKTNV-1" vertex="1"><mxGeometry x="440" y="200" width="360" height="230" as="geometry"/></mxCell><mxCell id="3" value="" style="line;strokeWidth=1;fillColor=none;align=left;verticalAlign=middle;spacingTop=-1;spacingLeft=3;spacingRight=3;rotatable=0;labelPosition=right;points=[];portConstraint=eastwest;" parent="1" vertex="1"><mxGeometry y="26" width="360" height="8" as="geometry"/></mxCell><mxCell id="2" value="-wordleFrame: JFrame&#10;&#10;-wordleGuesses: JPanel&#10;&#10;-wordleSubmitButton: JButton&#10;" style="text;strokeColor=none;fillColor=none;align=left;verticalAlign=top;spacingLeft=4;spacingRight=4;overflow=hidden;rotatable=0;points=[[0,0.5],[1,0.5]];portConstraint=eastwest;" parent="1" vertex="1"><mxGeometry y="34" width="360" height="84" as="geometry"/></mxCell><mxCell id="4" value="+actionPerformed(): void&#10;&#10;+addButton(text:String, textField:JTextField, frame:JFrame): void&#10;&#10;+displayCorrectness(): void&#10;&#10;+addTextBox(frame:JFrame): void&#10;&#10;" style="text;strokeColor=none;fillColor=none;align=left;verticalAlign=top;spacingLeft=4;spacingRight=4;overflow=hidden;rotatable=0;points=[[0,0.5],[1,0.5]];portConstraint=eastwest;" parent="1" vertex="1"><mxGeometry y="118" width="360" height="112" as="geometry"/></mxCell><mxCell id="5" value="WordleGame" style="swimlane;fontStyle=1;align=center;verticalAlign=top;childLayout=stackLayout;horizontal=1;startSize=26;horizontalStack=0;resizeParent=1;resizeParentMax=0;resizeLast=0;collapsible=1;marginBottom=0;" parent="WIyWlLk6GJQsqaUBKTNV-1" vertex="1"><mxGeometry x="40" y="200" width="370" height="300" as="geometry"/></mxCell><mxCell id="6" value="-fiveLetterWords: ArrayList&lt;String&gt;&#10;&#10;-targetWord: String&#10;&#10;-userGuess: String&#10;" style="text;strokeColor=none;fillColor=none;align=left;verticalAlign=top;spacingLeft=4;spacingRight=4;overflow=hidden;rotatable=0;points=[[0,0.5],[1,0.5]];portConstraint=eastwest;" parent="5" vertex="1"><mxGeometry y="26" width="370" height="84" as="geometry"/></mxCell><mxCell id="7" value="" style="line;strokeWidth=1;fillColor=none;align=left;verticalAlign=middle;spacingTop=-1;spacingLeft=3;spacingRight=3;rotatable=0;labelPosition=right;points=[];portConstraint=eastwest;" parent="5" vertex="1"><mxGeometry y="110" width="370" height="8" as="geometry"/></mxCell><mxCell id="8" value="+pickTargetWord(words:ArrayList&lt;String&gt;): String&#10;&#10;+getUserGuess(words:ArrayList&lt;String&gt;): String&#10;&#10;+checkUserGuess(userGuess:String, targetWord:String): boolean&#10;&#10;+storeHighScore(name:String, score:int): void&#10;&#10;+generateNumber(rang:int): int&#10;&#10;+fillArrayList(fileName:File): void&#10;" style="text;strokeColor=none;fillColor=none;align=left;verticalAlign=top;spacingLeft=4;spacingRight=4;overflow=hidden;rotatable=0;points=[[0,0.5],[1,0.5]];portConstraint=eastwest;" parent="5" vertex="1"><mxGeometry y="118" width="370" height="182" as="geometry"/></mxCell><mxCell id="9" value="ActionListener" style="swimlane;fontStyle=1;align=center;verticalAlign=top;childLayout=stackLayout;horizontal=1;startSize=26;horizontalStack=0;resizeParent=1;resizeParentMax=0;resizeLast=0;collapsible=1;marginBottom=0;" parent="WIyWlLk6GJQsqaUBKTNV-1" vertex="1"><mxGeometry x="540" y="40" width="260" height="60" as="geometry"/></mxCell><mxCell id="11" value="" style="line;strokeWidth=1;fillColor=none;align=left;verticalAlign=middle;spacingTop=-1;spacingLeft=3;spacingRight=3;rotatable=0;labelPosition=right;points=[];portConstraint=eastwest;" parent="9" vertex="1"><mxGeometry y="26" width="260" height="8" as="geometry"/></mxCell><mxCell id="12" value="+actionPerformed(e:ActionEvent): void" style="text;strokeColor=none;fillColor=none;align=left;verticalAlign=top;spacingLeft=4;spacingRight=4;overflow=hidden;rotatable=0;points=[[0,0.5],[1,0.5]];portConstraint=eastwest;" parent="9" vertex="1"><mxGeometry y="34" width="260" height="26" as="geometry"/></mxCell><mxCell id="17" value="" style="endArrow=block;dashed=1;endFill=0;endSize=12;html=1;rounded=0;exitX=0.501;exitY=1.154;exitDx=0;exitDy=0;exitPerimeter=0;" parent="WIyWlLk6GJQsqaUBKTNV-1" source="lITUYnTNvuvev6aslpu9-3" edge="1"><mxGeometry width="160" relative="1" as="geometry"><mxPoint x="120" y="140" as="sourcePoint"/><mxPoint x="200" y="200" as="targetPoint"/><Array as="points"><mxPoint x="120" y="160"/><mxPoint x="200" y="160"/></Array></mxGeometry></mxCell><mxCell id="18" value="" style="endArrow=block;dashed=1;endFill=0;endSize=12;html=1;rounded=0;" parent="WIyWlLk6GJQsqaUBKTNV-1" edge="1"><mxGeometry width="160" relative="1" as="geometry"><mxPoint x="200" y="80" as="sourcePoint"/><mxPoint x="600" y="200" as="targetPoint"/><Array as="points"><mxPoint x="480" y="80"/><mxPoint x="480" y="160"/><mxPoint x="600" y="160"/></Array></mxGeometry></mxCell><mxCell id="20" value="&lt;&lt;instantiates&gt;&gt;" style="text;strokeColor=none;fillColor=none;align=left;verticalAlign=top;spacingLeft=4;spacingRight=4;overflow=hidden;rotatable=0;points=[[0,0.5],[1,0.5]];portConstraint=eastwest;" parent="WIyWlLk6GJQsqaUBKTNV-1" vertex="1"><mxGeometry x="280" y="52" width="100" height="26" as="geometry"/></mxCell><mxCell id="21" value="&lt;&lt;instantiates&gt;&gt;" style="text;strokeColor=none;fillColor=none;align=left;verticalAlign=top;spacingLeft=4;spacingRight=4;overflow=hidden;rotatable=0;points=[[0,0.5],[1,0.5]];portConstraint=eastwest;" parent="WIyWlLk6GJQsqaUBKTNV-1" vertex="1"><mxGeometry x="120" y="130" width="100" height="26" as="geometry"/></mxCell><mxCell id="22" value="" style="endArrow=block;dashed=1;endFill=0;endSize=12;html=1;rounded=0;exitX=0.666;exitY=0;exitDx=0;exitDy=0;exitPerimeter=0;entryX=0.538;entryY=1;entryDx=0;entryDy=0;entryPerimeter=0;" parent="WIyWlLk6GJQsqaUBKTNV-1" source="1" target="12" edge="1"><mxGeometry width="160" relative="1" as="geometry"><mxPoint x="660" y="190" as="sourcePoint"/><mxPoint x="680" y="110" as="targetPoint"/></mxGeometry></mxCell><mxCell id="23" value="&lt;&lt;uses&gt;&gt;" style="text;strokeColor=none;fillColor=none;align=left;verticalAlign=top;spacingLeft=4;spacingRight=4;overflow=hidden;rotatable=0;points=[[0,0.5],[1,0.5]];portConstraint=eastwest;" parent="WIyWlLk6GJQsqaUBKTNV-1" vertex="1"><mxGeometry x="690" y="140" width="70" height="26" as="geometry"/></mxCell></root></mxGraphModel></diagram></mxfile>